<svg id="Layer_1_copy_2" data-name="Layer 1 copy 2" xmlns="http://www.w3.org/2000/svg" viewBox="0 0 755 755"><defs><style>.cls-1{fill:none;}.cls-1,.cls-3,.cls-4,.cls-5,.cls-6{stroke:#231f20;stroke-miterlimit:10;}.cls-1,.cls-3,.cls-5{stroke-width:10px;}.cls-2{fill:#f26522;}.cls-3,.cls-4{fill:#a3a3a3;}.cls-4,.cls-6{stroke-width:20px;}.cls-5,.cls-6{fill:#fff;}</style></defs><title>vD-Logo-0217</title><line class="cls-1" x1="126.17" y1="190" x2="378.24" y2="190"/><line class="cls-1" x1="126.17" y1="190" x2="126.17" y2="563.34"/><circle class="cls-2" cx="377.1" cy="377.01" r="186.33"/><path class="cls-1" d="M269.36,528.63a186.37,186.37,0,0,1,2.35-305.71"/><path class="cls-1" d="M485.66,225.14a186.36,186.36,0,0,1-1.85,304.22"/><path class="cls-1" d="M474.56,217.75q5.69,3.5,11.1,7.38"/><polyline class="cls-1" points="630.03 125.1 377.6 562.31 125.17 125.1"/><circle class="cls-3" cx="126.17" cy="124.83" r="107.83"/><circle class="cls-3" cx="629.67" cy="124.83" r="107.83"/><circle class="cls-4" cx="377.6" cy="562.31" r="107.83"/><polyline class="cls-1" points="630.67 627.9 378.24 190.69 125.81 627.9"/><circle class="cls-5" cx="629.67" cy="628.17" r="107.83"/><circle class="cls-5" cx="126.17" cy="628.17" r="107.83"/><circle class="cls-6" cx="378.24" cy="190.69" r="107.83"/></svg>